<?xml version="1.0" encoding="UTF-8" standalone="no"?>
<svg
   xmlns:dc="http://purl.org/dc/elements/1.1/"
   xmlns:cc="http://creativecommons.org/ns#"
   xmlns:rdf="http://www.w3.org/1999/02/22-rdf-syntax-ns#"
   xmlns:svg="http://www.w3.org/2000/svg"
   xmlns="http://www.w3.org/2000/svg"
   xmlns:sodipodi="http://sodipodi.sourceforge.net/DTD/sodipodi-0.dtd"
   xmlns:inkscape="http://www.inkscape.org/namespaces/inkscape"
   width="500"
   height="80"
   version="1.1"
   viewBox="0 0 132.29 21.166545"
   id="svg62"
   sodipodi:docname="dra.svg"
   inkscape:version="1.0.1 (3bc2e813f5, 2020-09-07)">
  <metadata
     id="metadata68">
    <rdf:RDF>
      <cc:Work
         rdf:about="">
        <dc:format>image/svg+xml</dc:format>
        <dc:type
           rdf:resource="http://purl.org/dc/dcmitype/StillImage" />
        <dc:title></dc:title>
      </cc:Work>
    </rdf:RDF>
  </metadata>
  <defs
     id="defs66" />
  <sodipodi:namedview
     pagecolor="#ffffff"
     bordercolor="#666666"
     borderopacity="1"
     objecttolerance="10"
     gridtolerance="10"
     guidetolerance="10"
     inkscape:pageopacity="0"
     inkscape:pageshadow="2"
     inkscape:window-width="1741"
     inkscape:window-height="937"
     id="namedview64"
     showgrid="false"
     inkscape:pagecheckerboard="true"
     inkscape:zoom="1.319"
     inkscape:cx="239.50302"
     inkscape:cy="174.54192"
     inkscape:window-x="0"
     inkscape:window-y="0"
     inkscape:window-maximized="0"
     inkscape:current-layer="layer1"
     showguides="true"
     inkscape:guide-bbox="true">
    <sodipodi:guide
       position="22.056044,10.599429"
       orientation="0,-1"
       id="guide121" />
  </sodipodi:namedview>
  <g
     inkscape:groupmode="layer"
     id="layer2"
     inkscape:label="Layer 2"
     style="display:inline">
    <rect
       style="fill:#000000;stroke-width:0.337461"
       id="rect119"
       width="16.435863"
       height="21.166546"
       x="-0.0004531405"
       y="-0.012659568" />
  </g>
  <g
     inkscape:groupmode="layer"
     id="layer1"
     inkscape:label="Layer 1"
     style="display:inline">
    <g
       id="g60"
       transform="translate(-0.36546991,3.3199939)">
      <g
         transform="translate(-0.075598,-0.95352)"
         stroke-width="0.44519"
         aria-label="c anatomy"
         id="g56">
        <path
           d="m 1.9276772,14.871 m 6.286,0 q -1.3534,0 -2.5109,-0.49861 -1.1397,-0.51642 -1.9944,-1.389 -0.83695,-0.89038 -1.3178,-2.1013 -0.463,-1.2109 -0.463,-2.6177 0,-1.4246 0.463,-2.5999 0.4808,-1.1753 1.3178,-1.9944 0.85476,-0.83695 1.9944,-1.2821 1.1575,-0.463 2.5109,-0.463 h 7.0162008 v 2.2616 H 8.2136772 q -0.87257,0 -1.6205,0.32054 -0.73011,0.30273 -1.2643,0.85476 -0.53422,0.55203 -0.83695,1.3178 -0.30273,0.76572 -0.30273,1.6917 0,0.90818 0.30273,1.6917 0.30273,0.78353 0.83695,1.3534 0.53423,0.55203 1.2643,0.87257 0.74792,0.32054 1.6205,0.32054 h 7.0162008 v 2.2616 z"
           id="path40"
           style="fill:#ffffff" />
        <path
           d="m 20.369,14.871 m 14.371,0 -1.941,-3.2588 H 26.6732 L 27.7416,9.778 h 3.9711 L 28.8279,4.9344 22.9514,14.871 H 20.3693 L 27.8128,2.477 q 0.19588,-0.33834 0.463,-0.53422 0.26711,-0.19588 0.64107,-0.19588 0.37396,0 0.62326,0.19588 0.26711,0.19588 0.463,0.53422 l 7.4613,12.394 z"
           id="path42" />
        <path
           d="M 38.799,14.871 M 40.9537,5.3974 V 14.871 H 38.799 V 3.118 q 0,-0.62326 0.30273,-0.97941 0.32054,-0.37396 0.85476,-0.37396 0.2493,0 0.4808,0.10684 0.2315,0.10684 0.4808,0.35615 l 9.1352,9.064 v -9.4736 h 2.1547 v 11.86 q 0,0.64107 -0.32054,0.99722 -0.30273,0.35615 -0.80134,0.35615 -0.55203,0 -1.0328,-0.4808 z"
           id="path44" />
        <path
           d="m 53.526,14.871 m 14.371,0 -1.941,-3.2588 H 59.8302 L 60.8986,9.778 h 3.9711 L 61.9849,4.9344 56.1084,14.871 H 53.5263 L 60.9698,2.477 q 0.19588,-0.33834 0.463,-0.53422 0.26711,-0.19588 0.64107,-0.19588 0.37396,0 0.62326,0.19588 0.26711,0.19588 0.463,0.53422 l 7.4613,12.394 z"
           id="path46" />
        <path
           d="m 68.947,14.871 m 4.9149,0 V 4.186 H 68.947 V 1.9244 H 81.038 V 4.186 h -4.9149 v 10.685 z"
           id="path48" />
        <path
           d="m 81.858,14.871 m 6.286,0 q -1.3534,0 -2.5109,-0.49861 -1.1397,-0.51642 -1.9944,-1.389 -0.83695,-0.89038 -1.3178,-2.1013 -0.463,-1.2109 -0.463,-2.6177 0,-1.4246 0.463,-2.5999 0.4808,-1.1753 1.3178,-1.9944 0.85476,-0.83695 1.9944,-1.2821 1.1575,-0.463 2.5109,-0.463 h 3.1519 q 1.4068,0 2.5643,0.463 1.1753,0.463 2.0122,1.2999 0.83695,0.83695 1.2999,2.0122 0.463,1.1575 0.463,2.5643 0,1.4068 -0.4808,2.6177 -0.463,1.2109 -1.3178,2.1013 -0.83695,0.87257 -1.9944,1.389 -1.1575,0.49861 -2.5465,0.49861 z m 3.1519,-2.2616 q 0.89038,0 1.6383,-0.32054 0.74792,-0.32054 1.2821,-0.87257 0.55203,-0.56984 0.85476,-1.3534 0.30273,-0.78353 0.30273,-1.6917 0,-0.90818 -0.30273,-1.6739 Q 94.76833,5.91376 94.2163,5.36169 93.68208,4.80966 92.9342,4.50693 92.18628,4.18639 91.2959,4.18639 H 88.144 q -0.87257,0 -1.6205,0.32054 -0.73011,0.30273 -1.2643,0.85476 -0.53419,0.55203 -0.83695,1.3178 -0.30273,0.76572 -0.30273,1.6917 0,0.90818 0.30273,1.6917 0.30273,0.78353 0.83695,1.3534 0.53422,0.55203 1.2643,0.87257 0.74792,0.32054 1.6205,0.32054 z"
           id="path50" />
        <path
           d="m 98.062,14.871 m 16.81,0 -2.4752,-9.0996 -3.6683,8.4229 q -0.19588,0.40957 -0.4808,0.64107 -0.26712,0.21369 -0.67669,0.21369 -0.80134,0 -1.1575,-0.85476 l -3.6505,-8.4229 -2.4752,9.0996 h -2.2259 l 3.33,-12.18 q 0.23149,-0.92599 1.1219,-0.92599 0.35615,0 0.65888,0.19588 0.32053,0.19588 0.4808,0.56984 l 3.9889,9.1531 3.9889,-9.1531 q 0.32054,-0.76572 1.0863,-0.76572 0.81914,0 1.0863,0.92599 l 3.3122,12.18 z"
           id="path52" />
        <path
           d="m 115.28,14.871 m 6.8737,0 V 9.9561 L 115.28,1.9249 h 3.0451 l 5.0395,5.9655 5.0573,-5.9655 h 2.8848 l -6.8915,8.0312 v 4.9149 z"
           id="path54" />
      </g>
      <path
         d="m 11.979328,6.8936 v 3.175 h 3.175 v -3.175 z"
         stroke-width="0.26458"
         id="path58"
         style="fill:#ff6d00;fill-opacity:1" />
    </g>
  </g>
</svg>
